<svg width="28" height="28" viewBox="0 0 28 28" fill="none" xmlns="http://www.w3.org/2000/svg">
<path d="M13.345 2.73869C13.6129 2.19811 14.3871 2.19811 14.6551 2.73869L17.6944 8.87035C17.8008 9.08501 18.0064 9.2338 18.2444 9.26822L25.0404 10.2515C25.6396 10.3382 25.8788 11.0713 25.4453 11.4921L20.5276 16.2649C20.3554 16.432 20.2769 16.6727 20.3175 16.9087L21.4784 23.648C21.5808 24.2422 20.9544 24.6953 20.4185 24.4148L14.3399 21.2329C14.1271 21.1215 13.8729 21.1215 13.6601 21.2329L7.58149 24.4148C7.04559 24.6953 6.41925 24.2422 6.5216 23.648L7.68251 16.9087C7.72315 16.6727 7.64459 16.432 7.47242 16.2649L2.55474 11.4921C2.12118 11.0713 2.36043 10.3382 2.95958 10.2515L9.75565 9.26822C9.99358 9.2338 10.1993 9.08501 10.3057 8.87035L13.345 2.73869Z" fill="#141C24"/>
</svg>
